# Blender 3.4.1
# www.blender.org
mtllib Conference table.mtl
o Conference_table_2
v 76.994080 -16.685596 27.588303
v 75.212097 -16.685596 27.588303
v 76.994080 -15.417594 27.588303
v 75.212097 -15.417594 27.588303
v 76.994080 -15.417593 -0.046663
v 75.212097 -15.417593 -0.046663
v 75.212097 -16.685595 -0.046663
v 76.994080 -16.685595 -0.046663
v 81.042221 -22.257174 27.588301
v 75.559052 -27.490568 27.588301
v 80.307602 -24.873871 27.588301
v 78.300629 -26.789434 27.588301
v 79.675430 -21.289347 29.216585
v 74.088669 -26.581861 29.216583
v 78.926941 -23.935602 29.216583
v 76.882050 -25.872791 29.216583
v -74.291306 -26.581869 29.216572
v -79.878067 -21.289354 29.216574
v -77.084686 -25.872799 29.216572
v -79.129578 -23.935610 29.216572
v -81.244858 24.033806 27.588293
v -75.761688 29.267202 27.588293
v -80.510239 26.650505 27.588293
v -78.503265 28.566057 27.588293
v -79.878067 23.065964 29.216576
v -74.291306 28.358484 29.216576
v -79.129578 25.712219 29.216576
v -77.084686 27.649426 29.216576
v -81.244858 -22.237665 29.216572
v -75.732162 -27.490576 29.216572
v -80.506287 -24.864113 29.216572
v -78.488510 -26.786818 29.216572
v -75.761688 -27.490576 27.588289
v -81.244858 -22.257181 27.588289
v -78.503265 -26.789442 27.588289
v -80.510239 -24.873878 27.588289
v 75.559052 29.267210 27.588305
v 81.042221 24.033813 27.588305
v 78.300629 28.566065 27.588305
v 80.307602 26.650513 27.588305
v 74.088669 28.358492 29.216587
v 79.675430 23.065971 29.216587
v 76.882050 27.649433 29.216587
v 78.926941 25.712227 29.216587
v 81.042221 -22.237658 29.216583
v 75.529526 -27.490568 29.216583
v 80.303665 -24.864105 29.216583
v 78.285873 -26.786810 29.216583
v -81.244858 24.014284 29.216576
v -75.732162 29.267202 29.216576
v -80.506287 26.640739 29.216576
v -78.488510 28.563444 29.216576
v 75.529526 29.267210 29.216587
v 81.042221 24.014292 29.216587
v 78.285873 28.563452 29.216587
v 80.303665 26.640747 29.216587
v -47.234966 -4.775137 29.216576
v -52.221199 0.493046 29.216576
v -49.728077 -4.069350 29.216576
v -51.553173 -2.141053 29.216576
v 52.621479 0.493051 29.216583
v 47.635239 -4.775134 29.216583
v 51.953453 -2.141049 29.216583
v 50.128357 -4.069345 29.216583
v 47.635239 6.551773 29.216583
v 52.621479 1.283573 29.216583
v 50.128357 5.845969 29.216583
v 51.953453 3.917673 29.216583
v -52.221199 1.283568 29.216576
v -47.234966 6.551769 29.216576
v -51.553173 3.917669 29.216576
v -49.728077 5.845964 29.216576
v 47.661976 -4.775134 27.749258
v 52.621479 0.472944 27.749258
v 50.141731 -4.072034 27.749258
v 51.957035 -2.151094 27.749258
v -52.221199 0.472939 27.749250
v -47.261696 -4.775137 27.749250
v -51.556751 -2.151099 27.749250
v -49.741455 -4.072039 27.749250
v -47.261696 6.551769 27.749250
v -52.221199 1.303692 27.749250
v -49.741455 5.848653 27.749250
v -51.556751 3.927731 27.749250
v 52.621479 1.303697 27.749258
v 47.661976 6.551773 27.749258
v 51.957035 3.927735 27.749258
v 50.141731 5.848658 27.749258
v -52.941864 -0.303018 29.216576
v -52.273514 -2.937547 29.216576
v -50.447544 -4.866157 29.216576
v -47.953228 -5.572092 29.216576
v 53.342148 -0.303013 29.216583
v 52.673790 -2.937542 29.216583
v 50.847824 -4.866152 29.216583
v 48.353508 -5.572088 29.216583
v 48.353508 7.348719 29.216583
v 50.847824 6.642792 29.216583
v 52.673794 4.714182 29.216583
v 53.342148 2.079637 29.216583
v -52.941864 2.079633 29.216576
v -52.273514 4.714178 29.216576
v -50.447544 6.642787 29.216576
v -47.953228 7.348715 29.216576
v 76.994080 15.953568 27.588303
v 75.212097 15.953567 27.588303
v 76.994080 17.221569 27.588303
v 75.212097 17.221569 27.588303
v 76.994080 17.221571 -0.046662
v 75.212097 17.221571 -0.046662
v 75.212097 15.953568 -0.046662
v 76.994080 15.953568 -0.046662
v -75.076263 -16.685604 27.588291
v -76.858261 -16.685604 27.588291
v -75.076263 -15.417602 27.588291
v -76.858261 -15.417602 27.588291
v -75.076263 -15.417601 -0.046675
v -76.858261 -15.417601 -0.046675
v -76.858261 -16.685602 -0.046675
v -75.076263 -16.685602 -0.046675
v -75.076263 15.953561 27.588291
v -76.858261 15.953560 27.588291
v -75.076263 17.221561 27.588291
v -76.858261 17.221561 27.588291
v -75.076263 17.221563 -0.046673
v -76.858261 17.221563 -0.046673
v -76.858261 15.953561 -0.046673
v -75.076263 15.953562 -0.046673
v -24.472202 -16.685602 27.588295
v -26.254196 -16.685602 27.588295
v -24.472202 -15.417600 27.588295
v -26.254196 -15.417600 27.588295
v -24.472200 -15.417599 -0.046671
v -26.254194 -15.417599 -0.046671
v -26.254194 -16.685600 -0.046671
v -24.472200 -16.685600 -0.046671
v -24.472202 15.953563 27.588295
v -26.254196 15.953563 27.588295
v -24.472204 17.221563 27.588295
v -26.254198 17.221563 27.588295
v -24.472200 17.221565 -0.046670
v -26.254194 17.221565 -0.046670
v -26.254194 15.953564 -0.046670
v -24.472200 15.953564 -0.046670
v 24.840933 -16.685598 27.588299
v 23.058939 -16.685598 27.588299
v 24.840933 -15.417596 27.588299
v 23.058939 -15.417596 27.588299
v 24.840935 -15.417595 -0.046667
v 23.058941 -15.417595 -0.046667
v 23.058941 -16.685596 -0.046667
v 24.840935 -16.685596 -0.046667
v 24.840933 15.953565 27.588299
v 23.058939 15.953565 27.588299
v 24.840931 17.221567 27.588299
v 23.058937 17.221567 27.588299
v 24.840935 17.221569 -0.046666
v 23.058941 17.221569 -0.046666
v 23.058941 15.953566 -0.046666
v 24.840935 15.953566 -0.046666
vn -0.0000 -0.0000 1.0000
vn 0.0917 -0.6678 0.7386
vn -0.0917 -0.6678 0.7386
vn -0.0917 0.6678 0.7386
vn 0.0917 0.6678 0.7386
vn 0.0903 0.7268 0.6808
vn 0.1262 0.9920 0.0021
vn -0.1262 0.9920 0.0021
vn -0.0903 0.7268 0.6808
vn 0.1392 -0.9903 -0.0024
vn -0.1392 -0.9903 -0.0024
vn 0.7280 -0.0996 0.6783
vn 0.9905 -0.1376 0.0018
vn 0.9905 0.1376 0.0018
vn 0.7280 0.0996 0.6783
vn -0.6725 -0.0831 0.7355
vn -0.6725 0.0831 0.7355
vn -0.1392 0.9903 -0.0024
vn 0.1392 0.9903 -0.0024
vn -0.7280 -0.0996 0.6783
vn -0.7280 0.0996 0.6783
vn -0.9905 0.1376 0.0018
vn -0.9905 -0.1376 0.0018
vn 0.6725 0.0831 0.7355
vn 0.6725 -0.0831 0.7355
vn -0.7071 -0.7071 -0.0000
vn -0.7071 0.7071 -0.0000
vn 0.7071 -0.7071 -0.0000
vn 0.7071 0.7071 -0.0000
vn -0.0903 -0.7268 0.6808
vn 0.0903 -0.7268 0.6808
vn 0.9922 0.1248 -0.0019
vn 0.9922 -0.1248 -0.0019
vn -0.9922 -0.1248 -0.0019
vn -0.9922 0.1248 -0.0019
vn -0.6484 -0.3894 0.6541
vn -0.3648 -0.6603 0.6565
vn 0.8566 0.5160 0.0053
vn 0.6484 0.3894 0.6541
vn 0.4856 0.8742 0.0056
vn 0.3648 0.6603 0.6565
vn 0.6484 -0.3894 0.6541
vn 0.8566 -0.5160 0.0053
vn 0.3648 -0.6603 0.6565
vn 0.4856 -0.8742 0.0056
vn 0.1262 -0.9920 0.0021
vn -0.8566 -0.5160 0.0054
vn -0.4856 -0.8742 0.0056
vn -0.1262 -0.9920 0.0021
vn -0.4856 0.8742 0.0056
vn -0.3648 0.6603 0.6565
vn -0.8566 0.5160 0.0054
vn -0.6484 0.3894 0.6541
vn -0.5628 0.3090 0.7667
vn -0.3299 0.5460 0.7701
vn -0.3299 -0.5460 0.7701
vn -0.5628 -0.3090 0.7667
vn 0.5628 -0.3090 0.7667
vn 0.3299 -0.5460 0.7701
vn -0.5191 -0.8547 -0.0061
vn -0.8758 -0.4826 -0.0056
vn -0.5191 0.8547 -0.0061
vn -0.8758 0.4826 -0.0056
vn 0.5628 0.3090 0.7667
vn 0.8758 0.4826 -0.0056
vn 0.3299 0.5460 0.7701
vn 0.5191 0.8547 -0.0061
vn 0.8758 -0.4826 -0.0056
vn 0.5191 -0.8547 -0.0061
vt 0.549621 0.192444
vt 0.549621 0.184043
vt 0.549621 0.198422
vt 0.549621 0.178065
vt 0.549621 0.206822
vt 0.643138 0.198422
vt 0.643138 0.178066
vt 0.643138 0.206822
vt 0.643138 0.184043
vt 0.643138 0.192444
vt 0.404968 0.031377
vt 0.385096 0.010933
vt 0.401861 0.022816
vt 0.395406 0.015505
vt 0.396047 0.035354
vt 0.378296 0.021158
vt 0.393841 0.028065
vt 0.388024 0.022692
vt 0.043705 0.022316
vt 0.026030 0.035918
vt 0.033987 0.023680
vt 0.028261 0.028871
vt 0.017401 0.160161
vt 0.036686 0.179917
vt 0.020421 0.168456
vt 0.026717 0.175526
vt 0.026010 0.156249
vt 0.043399 0.170017
vt 0.028192 0.163337
vt 0.033874 0.168549
vt 0.022286 0.033234
vt 0.038383 0.018298
vt 0.024523 0.026224
vt 0.029976 0.021100
vt 0.036874 0.012273
vt 0.017373 0.032038
vt 0.026843 0.016632
vt 0.020484 0.023691
vt 0.385271 0.181691
vt 0.404968 0.161242
vt 0.395627 0.177050
vt 0.402009 0.169695
vt 0.378297 0.171325
vt 0.396299 0.157334
vt 0.388226 0.169864
vt 0.394052 0.164519
vt 0.399963 0.032585
vt 0.383569 0.017178
vt 0.397701 0.025378
vt 0.392152 0.020075
vt 0.022181 0.158970
vt 0.038203 0.173908
vt 0.024444 0.165961
vt 0.029861 0.171093
vt 0.383716 0.175431
vt 0.400111 0.160067
vt 0.392357 0.172487
vt 0.397878 0.167184
vt 0.117070 0.080588
vt 0.102871 0.095035
vt 0.110007 0.082425
vt 0.104585 0.087656
vt 0.317861 0.094574
vt 0.303701 0.079588
vt 0.316337 0.087072
vt 0.310919 0.081548
vt 0.302702 0.112014
vt 0.317871 0.096802
vt 0.310386 0.109955
vt 0.315967 0.104400
vt 0.102873 0.097202
vt 0.117320 0.111811
vt 0.104652 0.104557
vt 0.110152 0.109924
vt 0.303216 0.083047
vt 0.314205 0.094692
vt 0.308923 0.084875
vt 0.312841 0.089046
vt 0.106445 0.095209
vt 0.117531 0.083838
vt 0.107993 0.089639
vt 0.111965 0.085734
vt 0.117802 0.108379
vt 0.106449 0.097011
vt 0.112106 0.106588
vt 0.108093 0.102481
vt 0.314158 0.096544
vt 0.302106 0.108686
vt 0.312327 0.102294
vt 0.308430 0.106462
vt 0.100922 0.092860
vt 0.102643 0.085500
vt 0.107954 0.080136
vt 0.114984 0.078083
vt 0.319892 0.092405
vt 0.318363 0.084909
vt 0.313059 0.079247
vt 0.305812 0.077057
vt 0.304982 0.114671
vt 0.312555 0.112378
vt 0.318014 0.106661
vt 0.319852 0.099032
vt 0.100926 0.099367
vt 0.102694 0.106753
vt 0.108067 0.112237
vt 0.115226 0.114306
vt 0.548669 0.238688
vt 0.548669 0.230211
vt 0.548669 0.244720
vt 0.548669 0.224180
vt 0.548669 0.253197
vt 0.643032 0.244720
vt 0.643032 0.224180
vt 0.643032 0.253197
vt 0.643032 0.230211
vt 0.643032 0.238688
vt 0.549621 0.192444
vt 0.549621 0.184043
vt 0.549621 0.198422
vt 0.549621 0.178065
vt 0.549621 0.206822
vt 0.643138 0.198422
vt 0.643138 0.178066
vt 0.643138 0.206822
vt 0.643138 0.184043
vt 0.643138 0.192444
vt 0.548669 0.238688
vt 0.548669 0.230211
vt 0.548669 0.244720
vt 0.548669 0.224180
vt 0.548669 0.253197
vt 0.643032 0.244720
vt 0.643032 0.224180
vt 0.643032 0.253197
vt 0.643032 0.230211
vt 0.643032 0.238688
vt 0.549621 0.192444
vt 0.549621 0.184043
vt 0.549621 0.198422
vt 0.549621 0.178065
vt 0.549621 0.206822
vt 0.643138 0.198422
vt 0.643138 0.178066
vt 0.643138 0.206822
vt 0.643138 0.184043
vt 0.643138 0.192444
vt 0.548669 0.238688
vt 0.548669 0.230211
vt 0.548669 0.244720
vt 0.548669 0.224180
vt 0.548669 0.253197
vt 0.643032 0.244720
vt 0.643032 0.224180
vt 0.643032 0.253197
vt 0.643032 0.230211
vt 0.643032 0.238688
vt 0.549621 0.192444
vt 0.549621 0.184043
vt 0.549621 0.198422
vt 0.549621 0.178065
vt 0.549621 0.206822
vt 0.643138 0.198422
vt 0.643138 0.178066
vt 0.643138 0.206822
vt 0.643138 0.184043
vt 0.643138 0.192444
vt 0.548669 0.238688
vt 0.548669 0.230211
vt 0.548669 0.244720
vt 0.548669 0.224180
vt 0.548669 0.253197
vt 0.643032 0.244720
vt 0.643032 0.224180
vt 0.643032 0.253197
vt 0.643032 0.230211
vt 0.643032 0.238688
s 1
usemtl details.001
f 97/99/1 104/106/1 70/72/2 65/67/3
f 92/94/1 96/98/1 62/64/4 57/59/5
f 53/55/6 37/39/7 22/24/8 50/52/9
f 65/67/3 70/72/2 81/83/10 86/88/11
f 45/47/12 9/11/13 38/40/14 54/56/15
f 93/95/1 100/102/1 66/68/16 61/63/17
f 57/59/5 62/64/4 73/75/18 78/80/19
f 29/31/20 49/51/21 21/23/22 34/36/23
f 101/103/1 89/91/1 58/60/24 69/71/25
f 2/2/26 4/4/27 6/7/27 7/9/26
f 1/1/28 2/2/26 7/9/26 8/10/28
f 3/3/29 1/1/28 8/10/28 5/6/29
f 4/5/27 3/3/29 5/6/29 6/8/27
f 14/16/1 17/19/1 30/32/30 46/48/31
f 42/44/1 13/15/1 45/47/12 54/56/15
f 26/28/1 41/43/1 53/55/6 50/52/9
f 18/20/1 25/27/1 49/51/21 29/31/20
f 69/71/25 58/60/24 77/79/32 82/84/33
f 61/63/17 66/68/16 85/87/34 74/76/35
f 18/20/1 29/31/20 31/33/36 20/22/1
f 20/22/1 31/33/36 32/34/37 19/21/1
f 19/21/1 32/34/37 30/32/30 17/19/1
f 54/56/15 38/40/14 40/42/38 56/58/39
f 56/58/39 40/42/38 39/41/40 55/57/41
f 55/57/41 39/41/40 37/39/7 53/55/6
f 42/44/1 54/56/15 56/58/39 44/46/1
f 44/46/1 56/58/39 55/57/41 43/45/1
f 43/45/1 55/57/41 53/55/6 41/43/1
f 9/11/13 45/47/12 47/49/42 11/13/43
f 11/13/43 47/49/42 48/50/44 12/14/45
f 12/14/45 48/50/44 46/48/31 10/12/46
f 29/31/20 34/36/23 36/38/47 31/33/36
f 31/33/36 36/38/47 35/37/48 32/34/37
f 32/34/37 35/37/48 33/35/49 30/32/30
f 50/52/9 22/24/8 24/26/50 52/54/51
f 52/54/51 24/26/50 23/25/52 51/53/53
f 51/53/53 23/25/52 21/23/22 49/51/21
f 45/47/12 13/15/1 15/17/1 47/49/42
f 47/49/42 15/17/1 16/18/1 48/50/44
f 48/50/44 16/18/1 14/16/1 46/48/31
f 49/51/21 25/27/1 27/29/1 51/53/53
f 51/53/53 27/29/1 28/30/1 52/54/51
f 52/54/51 28/30/1 26/28/1 50/52/9
f 89/91/1 18/20/1 20/22/1 90/92/1
f 90/92/1 20/22/1 19/21/1 91/93/1
f 91/93/1 19/21/1 17/19/1 92/94/1
f 93/95/1 61/63/17 63/65/54 94/96/1
f 94/96/1 63/65/54 64/66/55 95/97/1
f 95/97/1 64/66/55 62/64/4 96/98/1
f 97/99/1 65/67/3 67/69/56 98/100/1
f 98/100/1 67/69/56 68/70/57 99/101/1
f 99/101/1 68/70/57 66/68/16 100/102/1
f 101/103/1 69/71/25 71/73/58 102/104/1
f 102/104/1 71/73/58 72/74/59 103/105/1
f 103/105/1 72/74/59 70/72/2 104/106/1
f 65/67/3 86/88/11 88/90/60 67/69/56
f 67/69/56 88/90/60 87/89/61 68/70/57
f 68/70/57 87/89/61 85/87/34 66/68/16
f 73/75/18 62/64/4 64/66/55 75/77/62
f 75/77/62 64/66/55 63/65/54 76/78/63
f 76/78/63 63/65/54 61/63/17 74/76/35
f 77/79/32 58/60/24 60/62/64 79/81/65
f 79/81/65 60/62/64 59/61/66 80/82/67
f 80/82/67 59/61/66 57/59/5 78/80/19
f 69/71/25 82/84/33 84/86/68 71/73/58
f 71/73/58 84/86/68 83/85/69 72/74/59
f 72/74/59 83/85/69 81/83/10 70/72/2
f 46/48/31 30/32/30 33/35/49 10/12/46
f 28/30/1 103/105/1 104/106/1 26/28/1
f 27/29/1 102/104/1 103/105/1 28/30/1
f 25/27/1 101/103/1 102/104/1 27/29/1
f 44/46/1 99/101/1 100/102/1 42/44/1
f 43/45/1 98/100/1 99/101/1 44/46/1
f 41/43/1 97/99/1 98/100/1 43/45/1
f 16/18/1 95/97/1 96/98/1 14/16/1
f 15/17/1 94/96/1 95/97/1 16/18/1
f 13/15/1 93/95/1 94/96/1 15/17/1
f 59/61/66 91/93/1 92/94/1 57/59/5
f 60/62/64 90/92/1 91/93/1 59/61/66
f 58/60/24 89/91/1 90/92/1 60/62/64
f 25/27/1 18/20/1 89/91/1 101/103/1
f 13/15/1 42/44/1 100/102/1 93/95/1
f 17/19/1 14/16/1 96/98/1 92/94/1
f 41/43/1 26/28/1 104/106/1 97/99/1
f 106/108/26 108/110/27 110/113/27 111/115/26
f 105/107/28 106/108/26 111/115/26 112/116/28
f 107/109/29 105/107/28 112/116/28 109/112/29
f 108/111/27 107/109/29 109/112/29 110/114/27
f 114/118/26 116/120/27 118/123/27 119/125/26
f 113/117/28 114/118/26 119/125/26 120/126/28
f 115/119/29 113/117/28 120/126/28 117/122/29
f 116/121/27 115/119/29 117/122/29 118/124/27
f 122/128/26 124/130/27 126/133/27 127/135/26
f 121/127/28 122/128/26 127/135/26 128/136/28
f 123/129/29 121/127/28 128/136/28 125/132/29
f 124/131/27 123/129/29 125/132/29 126/134/27
f 130/138/26 132/140/27 134/143/27 135/145/26
f 129/137/28 130/138/26 135/145/26 136/146/28
f 131/139/29 129/137/28 136/146/28 133/142/29
f 132/141/27 131/139/29 133/142/29 134/144/27
f 138/148/26 140/150/27 142/153/27 143/155/26
f 137/147/28 138/148/26 143/155/26 144/156/28
f 139/149/29 137/147/28 144/156/28 141/152/29
f 140/151/27 139/149/29 141/152/29 142/154/27
f 146/158/26 148/160/27 150/163/27 151/165/26
f 145/157/28 146/158/26 151/165/26 152/166/28
f 147/159/29 145/157/28 152/166/28 149/162/29
f 148/161/27 147/159/29 149/162/29 150/164/27
f 154/168/26 156/170/27 158/173/27 159/175/26
f 153/167/28 154/168/26 159/175/26 160/176/28
f 155/169/29 153/167/28 160/176/28 157/172/29
f 156/171/27 155/169/29 157/172/29 158/174/27
